<?xml version="1.0" encoding="utf-8"?>
<!-- Generator: Adobe Illustrator 25.1.0, SVG Export Plug-In . SVG Version: 6.00 Build 0)  -->
<svg version="1.1" id="vk-icon-wide" xmlns="http://www.w3.org/2000/svg" xmlns:xlink="http://www.w3.org/1999/xlink" x="0px"
	 y="0px" viewBox="0 0 128 128" style="enable-background:new 0 0 128 128;" xml:space="preserve">
<style type="text/css">
	.st0{fill:#999999;stroke:#999999;stroke-miterlimit:10;}
	.st1{fill:none;stroke:#999999;stroke-width:3;stroke-miterlimit:10;}
</style>
<path id="vk" class="st0" d="M66.4,82.8c-1.2,0-2.5,0-3.9,0s-2.9-0.2-4.5-0.6s-3.2-1-4.9-2c-1.7-0.9-3.4-2.3-5.1-4.2
	c-1.2-1.3-2.4-2.7-3.5-4.4c-1.2-1.6-2.3-3.3-3.4-5c-1.1-1.7-2.1-3.4-3-5.1c-0.9-1.7-1.7-3.2-2.4-4.6c-0.7-1.4-1.2-2.6-1.6-3.5
	c-0.4-1-0.6-1.6-0.6-1.8c0-0.9,0.7-1.3,2-1.3h8.1c0.5,0,0.9,0.1,1.3,0.2c0.3,0.1,0.6,0.3,0.8,0.5s0.3,0.5,0.5,0.8
	c0.1,0.3,0.3,0.6,0.4,1c0.4,0.9,0.9,2,1.5,3.2s1.2,2.4,1.9,3.5s1.3,2.2,2,3.2s1.3,1.7,1.9,2.2c0.6,0.5,1.2,0.6,1.6,0.5
	c0.5-0.1,0.9-0.7,1.1-1.8c0.2-0.9,0.4-2,0.5-3.4s0.1-2.8,0-4.1s-0.5-2.5-0.9-3.5c-0.5-1-1.2-1.6-2.2-1.8c-0.6-0.1-0.8-0.3-0.6-0.6
	s0.6-0.6,1.3-0.9c0.7-0.3,1.6-0.6,2.8-0.9s2.4-0.4,3.9-0.4c0.7,0,1.4,0,2.2,0.1c0.8,0.1,1.5,0.2,2.3,0.4c0.7,0.2,1.3,0.4,1.7,0.6
	c0.4,0.2,0.7,0.5,0.8,0.9c0.2,0.3,0.3,0.7,0.3,1.1c0,0.4,0.1,0.8,0.1,1.3c0,1.8-0.1,3.4-0.2,4.9s-0.2,2.8-0.2,3.9
	c0,1.1,0.1,2,0.3,2.8c0.2,0.8,0.5,1.3,1,1.6c0.5,0.3,1,0.1,1.8-0.6c0.7-0.7,1.6-1.7,2.4-2.9c0.9-1.3,1.7-2.7,2.6-4.2
	c0.8-1.6,1.6-3.1,2.2-4.6c0.2-0.4,0.3-0.8,0.4-1.1s0.3-0.6,0.4-0.8c0.2-0.2,0.4-0.4,0.7-0.5c0.3-0.1,0.7-0.2,1.1-0.2h10
	c0.9,0,1.4,0.2,1.7,0.6s0.4,0.9,0.2,1.6c-0.1,0.7-0.5,1.5-0.9,2.3S91.2,57,90.6,58c-0.7,1-1.4,2-2.2,3s-1.6,2-2.3,3
	c-0.9,1.2-1.6,2.1-2,2.8c-0.4,0.7-0.6,1.3-0.5,1.8s0.4,1.1,0.9,1.7c0.6,0.6,1.4,1.4,2.4,2.3c0.8,0.7,1.5,1.4,2.3,2.2
	c0.8,0.8,1.5,1.6,2.1,2.4s1.1,1.6,1.5,2.3c0.4,0.7,0.6,1.3,0.6,1.9c0,0.5-0.2,0.9-0.7,1.2c-0.4,0.3-1.2,0.5-2.2,0.5h-8
	c-1.1,0-2-0.2-2.8-0.5c-0.7-0.3-1.4-0.7-2-1.3c-0.6-0.6-1.2-1.2-1.9-2c-0.6-0.8-1.4-1.6-2.4-2.6c-0.8-0.8-1.6-1.3-2.2-1.5
	c-0.6-0.1-1.2,0-1.6,0.4s-0.8,1.1-1,2s-0.3,1.9-0.3,3.1c0,0.6-0.2,1.2-0.5,1.6C67.7,82.6,67.2,82.8,66.4,82.8z"/>
<path id="contour" class="st1" d="M90.5,104h-53C30,104,24,98,24,90.5v-53C24,30,30,24,37.5,24h53.1C98,24,104,30,104,37.5v53.1
	C104,98,98,104,90.5,104z"/>
</svg>
