<?xml version="1.0" encoding="utf-8"?>
<!-- Generator: Adobe Illustrator 25.1.0, SVG Export Plug-In . SVG Version: 6.00 Build 0)  -->
<svg version="1.1" id="Layer_1" xmlns="http://www.w3.org/2000/svg" xmlns:xlink="http://www.w3.org/1999/xlink" x="0px" y="0px"
	 viewBox="0 0 128 128" style="enable-background:new 0 0 128 128;" xml:space="preserve">
<style type="text/css">
	.st0{fill:#999999;stroke:#999999;stroke-width:0.8719;stroke-linejoin:round;stroke-miterlimit:8.7193;}
	.st1{fill:#999999;stroke:#999999;stroke-miterlimit:10;}
	.st2{fill:none;stroke:#999999;stroke-width:3;stroke-miterlimit:10;}
</style>
<g id="surface6026474">
	<path class="st0" d="M89.7,35.8c0.6,0.4,1.1,1.2,1.3,2c0.2,0.9,0.2,1.8,0,2.9l-8.3,48.8v0.1c0,0-0.4,1.2-1.4,2.1s-2.8,1.5-4.7,0.5
		L76.4,92l-11.3-9.9l-6.9,7.3l0,0c0,0-1.1,0.9-2.4,0.4c-0.1,0-0.1,0-0.1,0s0,0-0.1,0l0,0l0,0l0,0c-0.1,0-0.2-0.1-0.3-0.1
		c-0.2-0.2-0.4-0.4-0.6-0.6c-0.4-0.5-0.7-1.3-1.1-2.7C52.9,83.9,49.8,72,49.5,71l-11.3-4.4l0,0c0,0-2.5-0.8-2.8-3.5
		c-0.1-0.8,0.1-1.5,0.5-2.1c0.3-0.5,0.7-0.9,1-1.2c0.6-0.5,1.2-0.7,1.4-0.8c0.7-0.3,11.9-5.8,23.3-11.3c5.9-2.9,11.8-5.7,16.4-7.9
		s7.7-3.7,8.2-3.9s1.1-0.4,1.8-0.5C88.4,35.2,89.1,35.3,89.7,35.8z M87,38.4c-0.3,0.1-3.6,1.7-8.1,3.9c-4.6,2.2-10.5,5.1-16.4,7.9
		c-11.8,5.7-23.3,11.3-23.3,11.3l0,0l0,0c0,0-0.4,0.2-0.8,0.5c-0.2,0.1-0.3,0.3-0.4,0.4c-0.1,0.1,0,0.1,0,0.1
		c0.1,0.5,1.2,1.2,1.2,1.2l11.3,4.4l30-22.6c0.2-0.2,0.4-0.2,0.7-0.2c0.5,0,1,0.3,1.2,0.8s0.1,1.1-0.2,1.5l-21,27.6l3.7,3.1l0,0
		l0.3,0.3l12.3,10.9c1.2,0.6,1.6,0.3,2-0.1s0.6-0.8,0.6-0.9L88.5,40l0,0c0.2-0.8,0.1-1.3,0.1-1.5c-0.1-0.2-0.1-0.2-0.1-0.3
		c-0.1,0-0.2-0.1-0.5-0.1S87.3,38.2,87,38.4z M52,70.3c0.4,1.5,3.4,12.7,4,15.1l0,0c0,0.1,0.1,0.2,0.1,0.3l2-10.4l0,0
		c0-0.2,0.1-0.4,0.2-0.6c0,0,0-0.1,0.1-0.1c0,0,0-0.1,0.1-0.1l0,0l15.7-20.9L52,70.3z M58.9,84.7l4.1-4.3L60.2,78L58.9,84.7z"/>
	<path class="st1" d="M87.8,35.2c-0.6,0-1.2,0.2-1.8,0.5c-0.5,0.2-3.6,1.7-8.2,3.9s-10.5,5.1-16.4,7.9
		c-11.8,5.7-23.3,11.3-23.3,11.3h0.1c0,0-0.7,0.3-1.4,0.8c-0.4,0.3-0.7,0.6-1,1.2c-0.3,0.5-0.5,1.3-0.5,2.1c0.3,2.8,2.8,3.5,2.8,3.5
		l0,0l11.3,4.4c0.3,1.1,3.4,12.9,4.1,15.4c0.4,1.4,0.7,2.2,1.1,2.7c0.2,0.3,0.4,0.5,0.6,0.6c0.1,0.1,0.2,0.1,0.3,0.1l0,0l0,0l0,0
		c0,0,0,0,0.1,0h0.1c1.3,0.5,2.4-0.4,2.4-0.4l0,0l6.9-7.3L76.4,92l0.1,0.1c2,1,3.8,0.4,4.7-0.5c1-0.9,1.4-2.1,1.4-2.1v-0.1l8.3-48.8
		c0.2-1.1,0.2-2,0-2.9s-0.7-1.6-1.3-2C89.1,35.3,88.4,35.2,87.8,35.2z M87.9,38.2c0.3,0,0.4,0,0.5,0.1c0.1,0,0.1,0,0.1,0.3
		s0.1,0.7-0.1,1.5l0,0l-8.2,48.5c0,0-0.2,0.5-0.6,0.9s-0.8,0.7-2,0.1L65.3,78.7L65,78.4l0,0l-3.7-3.1L82,47.7c0.3-0.4,0.4-1,0.2-1.5
		c-0.2-0.5-0.7-0.8-1.2-0.8c-0.2,0-0.5,0.1-0.7,0.2l-30,22.6L39,63.8c0,0-1.1-0.7-1.2-1.2c0,0,0,0,0-0.1c0.1-0.1,0.2-0.3,0.4-0.4
		c0.4-0.3,0.8-0.5,0.8-0.5l0,0l0,0c0,0,11.6-5.6,23.3-11.3c9.2-4.4,14.9-7.2,16.4-7.9c4.6-2.2,7.9-3.8,8.1-3.9
		C87.3,38.2,87.6,38.2,87.9,38.2z M74.2,53.6L58.4,74.5l0,0c0,0,0,0.1-0.1,0.1c0,0,0,0.1-0.1,0.1c-0.1,0.2-0.1,0.4-0.2,0.6l0,0
		l-2,10.4c0-0.1-0.1-0.2-0.1-0.3l0,0c-0.7-2.4-3.6-13.5-4-15.1L74.2,53.6z M60.2,77.9l2.8,2.4l-4.1,4.3L60.2,77.9z"/>
</g>
<path class="st2" d="M90.5,104h-53C30,104,24,98,24,90.5v-53C24,30,30,24,37.5,24h53.1C98,24,104,30,104,37.5v53.1
	C104,98,98,104,90.5,104z"/>
</svg>
