<?xml version="1.0" encoding="utf-8"?>
<!-- Generator: Adobe Illustrator 24.0.1, SVG Export Plug-In . SVG Version: 6.00 Build 0)  -->
<svg version="1.1" id="YSh-logo-Icon" xmlns="http://www.w3.org/2000/svg" xmlns:xlink="http://www.w3.org/1999/xlink" x="0px"
	 y="0px" viewBox="0 0 792 300" style="enable-background:new 0 0 792 300;" xml:space="preserve">
<style type="text/css">
	.st0{fill:#FFFFFF;stroke:#FFFFFF;stroke-miterlimit:10;}
	.st1{fill:none;stroke:#FFFFFF;stroke-width:2;stroke-miterlimit:10;}
	.st2{fill:none;stroke:#FFFFFF;stroke-width:3;stroke-miterlimit:10;}
	.st3{fill:none;stroke:#FFFFFF;stroke-width:5;stroke-miterlimit:10;}
	.st4{fill:none;stroke:#FFFFFF;stroke-width:9;stroke-miterlimit:10;}
	.st5{fill:none;stroke:#FFFFFF;stroke-width:5;stroke-linejoin:round;stroke-miterlimit:10;}
	.st6{fill:none;stroke:#FFFFFF;stroke-width:9;stroke-linejoin:round;stroke-miterlimit:10;}
</style>
<g id="Young_Soul_human_on_the_Web">
	<path id="b" class="st0" d="M573,239.9l0.4-0.5c0.8,0,1.7,0,2.5-0.1c0.8-0.1,1.4-0.2,1.8-0.2l0.5-0.1l0.4,0.4v12.2l-0.2,2.3
		l0.2,0.2c0.2-0.2,0.5-0.5,0.9-0.7c0.4-0.3,1.2-0.7,2.4-1.2c1.2-0.5,2.5-0.7,3.8-0.7c2.8,0,5,1,6.7,2.9c1.7,2,2.6,4.6,2.6,8
		c0,3.5-1,6.3-3,8.2c-2,2-5,2.9-9,2.9c-1.8,0-3.5-0.2-5-0.6s-2.6-0.8-3.2-1.2l-0.9-0.6v-18.3c0-2.5-0.1-4.9-0.2-7s-0.3-3.7-0.4-4.7
		L573,239.9z M589.8,262.9c0-2.9-0.6-5.1-1.7-6.5c-1.2-1.5-2.7-2.2-4.6-2.2c-0.8,0-1.7,0.1-2.5,0.4c-0.8,0.3-1.4,0.6-1.8,0.8
		l-0.6,0.5v14.4c1.2,1,2.7,1.5,4.6,1.5c2,0,3.6-0.8,4.8-2.3C589.2,268,589.8,265.8,589.8,262.9z"/>
	<path id="e_-_2" class="st0" d="M565.1,268.7l0.8,0.9c-0.1,0.1-0.2,0.3-0.3,0.5c-0.1,0.2-0.5,0.5-1,0.9c-0.5,0.5-1.1,0.9-1.7,1.2
		c-0.6,0.4-1.5,0.7-2.6,1c-1.1,0.3-2.2,0.4-3.5,0.4c-3.4,0-6.2-1-8.2-3c-2.1-2-3.1-4.7-3.1-8c0-3.4,1-6,3.1-8c2.1-2,5-3,8.7-3
		c2.8,0,4.9,0.6,6.4,1.8c1.5,1.2,2.2,2.9,2.2,5.2c0,0.6,0,1.1-0.1,1.7c-0.1,0.6-0.2,1-0.3,1.2l-0.1,0.4l-0.4,0.4h-14.3
		c0,2.9,0.7,5.1,2,6.6c1.3,1.5,3.2,2.2,5.6,2.2c1.3,0,2.4-0.2,3.6-0.6c1.1-0.4,1.9-0.8,2.4-1.1L565.1,268.7z M557.3,253.2
		c-1.9,0-3.4,0.6-4.5,1.9s-1.8,3.1-2,5.4l10.7-0.5c0.2-0.7,0.2-1.5,0.2-2.3C561.8,254.8,560.3,253.2,557.3,253.2z"/>
	<path id="W" class="st0" d="M527.9,272.4l-7.2-19.8l-7.1,20.6h-3.6l-0.8-0.8l-8.9-22.9c-0.6-1.6-1.2-3-1.8-4.2
		c-0.6-1.2-1-2.1-1.3-2.5l-0.4-0.7v-0.5h5.5l10.3,26.6l6.5-19.2c-0.5-1.4-1-2.7-1.5-3.9c-0.5-1.1-0.9-1.9-1.1-2.4l-0.4-0.6v-0.5h5.5
		l9.5,26.3l9.1-26.3h2.6l-11.1,31.5h-3.5L527.9,272.4z"/>
	<path id="e_-_1" class="st0" d="M478.5,268.7l0.8,0.9c-0.1,0.1-0.2,0.3-0.3,0.5c-0.1,0.2-0.5,0.5-1,0.9c-0.5,0.5-1.1,0.9-1.7,1.2
		c-0.6,0.4-1.5,0.7-2.6,1c-1.1,0.3-2.2,0.4-3.5,0.4c-3.4,0-6.2-1-8.2-3c-2.1-2-3.1-4.7-3.1-8c0-3.4,1-6,3.1-8c2.1-2,5-3,8.7-3
		c2.8,0,4.9,0.6,6.4,1.8c1.5,1.2,2.2,2.9,2.2,5.2c0,0.6,0,1.1-0.1,1.7c-0.1,0.6-0.2,1-0.3,1.2l-0.1,0.4l-0.4,0.4h-14.3
		c0,2.9,0.7,5.1,2,6.6c1.3,1.5,3.2,2.2,5.6,2.2c1.3,0,2.4-0.2,3.6-0.6c1.1-0.4,1.9-0.8,2.4-1.1L478.5,268.7z M470.7,253.2
		c-1.9,0-3.4,0.6-4.5,1.9s-1.8,3.1-2,5.4l10.7-0.5c0.2-0.7,0.2-1.5,0.2-2.3C475.2,254.8,473.7,253.2,470.7,253.2z"/>
	<path id="h_-_2" class="st0" d="M431.6,273.2v-19.5c0-2.5-0.1-4.9-0.2-7.2s-0.3-4-0.4-5l-0.2-1.5l0.4-0.5c0.8,0,1.7,0,2.5-0.1
		c0.8-0.1,1.4-0.2,1.8-0.2l0.5-0.1l0.4,0.4v12.2l-0.2,2.3l0.2,0.2c0.3-0.2,0.6-0.5,1.1-0.8c0.5-0.3,1.5-0.7,3-1.2
		c1.5-0.5,3-0.8,4.6-0.8c4.3,0,6.4,2.1,6.4,6.2v15.5h-4.7v-15.1c0-1.3-0.3-2.3-1-3c-0.7-0.6-1.7-0.9-3.2-0.9c-1.1,0-2.1,0.1-3.1,0.4
		c-1,0.3-1.8,0.6-2.3,0.9l-0.8,0.4v17.3H431.6z"/>
	<path id="t" class="st0" d="M409.7,253.8v-1.3l4-1.3l1.2-5.2h3.2v5.9h6.3v2h-6.3v13.9c0,2.2,1,3.3,3.1,3.3c0.6,0,1.1-0.1,1.6-0.3
		c0.5-0.2,0.8-0.3,1.1-0.5l0.3-0.3l0.9,0.9c-0.2,0.2-0.4,0.5-0.7,0.8s-1,0.7-2,1.2c-1.1,0.5-2.2,0.8-3.4,0.8c-1.7,0-3.1-0.5-4-1.4
		c-0.9-0.9-1.4-2.2-1.4-4v-14.4H409.7z"/>
	<path id="n_-_3" class="st0" d="M386.5,273.2v-15.1c0-1.3-0.3-2.3-1-3c-0.6-0.6-1.7-0.9-3.2-0.9c-1,0-2,0.1-3.1,0.4
		c-1,0.3-1.8,0.6-2.3,0.9l-0.8,0.4v17.3h-4.7v-13.5c0-1.5-0.1-2.9-0.2-4.2c-0.2-1.2-0.3-2.1-0.5-2.6l-0.2-0.7l0.5-0.5
		c0.8,0,1.7,0,2.5-0.1c0.8-0.1,1.4-0.1,1.7-0.2l0.5-0.1l0.4,0.4L376,254l0.2,0.2c0.3-0.2,0.6-0.5,1.1-0.8c0.5-0.3,1.5-0.7,3-1.2
		c1.5-0.5,3-0.8,4.5-0.8c4.3,0,6.4,2.1,6.4,6.2v15.5H386.5z"/>
	<path id="o_-_3" class="st0" d="M341,262.5c0-3.3,1-6,3.1-8c2.1-2,4.8-3.1,8.2-3.1c3.4,0,6.1,1,8.2,3.1c2.1,2,3.1,4.7,3.1,8
		c0,3.3-1,5.9-3.1,8c-2.1,2-4.8,3.1-8.2,3.1c-3.4,0-6.1-1-8.2-3.1S341,265.8,341,262.5z M347.9,255.7c-1.1,1.6-1.7,3.9-1.7,6.8
		s0.6,5.2,1.7,6.8c1.1,1.6,2.6,2.5,4.4,2.5c1.9,0,3.3-0.8,4.4-2.5c1.1-1.6,1.6-3.9,1.6-6.8c0-2.9-0.5-5.2-1.6-6.9
		c-1.1-1.6-2.6-2.5-4.4-2.5C350.5,253.2,349,254,347.9,255.7z"/>
	<path id="n_-_2" class="st0" d="M754.8,227.2v-15.1c0-1.3-0.3-2.3-1-3c-0.6-0.6-1.7-0.9-3.2-0.9c-1,0-2,0.1-3.1,0.4
		c-1,0.3-1.8,0.6-2.3,0.9l-0.8,0.4v17.3h-4.7v-13.5c0-1.5-0.1-2.9-0.2-4.2c-0.2-1.2-0.3-2.1-0.5-2.6l-0.2-0.7l0.5-0.5
		c0.8,0,1.7,0,2.5-0.1c0.8-0.1,1.4-0.1,1.7-0.2l0.5-0.1l0.4,0.4l-0.2,2.2l0.2,0.2c0.3-0.2,0.6-0.5,1.1-0.8c0.5-0.3,1.5-0.7,3-1.2
		c1.5-0.5,3-0.8,4.5-0.8c4.3,0,6.4,2.1,6.4,6.2v15.5H754.8z"/>
	<path id="a" class="st0" d="M721.3,205.5c5.6,0,8.5,2.1,8.5,6.3v11.5c0,1.3,0.5,2,1.6,2c0.2,0,0.5,0,0.7-0.1s0.4-0.1,0.5-0.2
		l0.1-0.1l0.8,0.9c-0.1,0.2-0.3,0.3-0.5,0.5c-0.2,0.2-0.7,0.5-1.5,0.8s-1.6,0.5-2.6,0.5c-2.2,0-3.5-0.9-3.8-2.7
		c-2.2,1.8-4.8,2.7-7.7,2.7c-2,0-3.5-0.5-4.5-1.5s-1.6-2.3-1.6-4.1c0-1.7,0.6-3,1.8-3.9s3.5-1.6,6.8-2l5-0.6v-4.5
		c0-2.5-1.3-3.7-3.9-3.7c-1.4,0-2.5,0.4-3.3,1.1c-0.8,0.7-1.2,1.7-1.2,3c0,0.4,0,0.7,0.1,1c0.1,0.3,0.1,0.6,0.2,0.8l0,0.2l-0.4,0.4
		c-0.7,0-1.4,0-2-0.1c-0.6-0.1-1.1-0.1-1.3-0.2l-0.4-0.1c-0.3-0.5-0.4-1.2-0.4-2c0-1.8,0.8-3.2,2.3-4.3
		C716.2,206,718.4,205.5,721.3,205.5z M716.2,221.4c0,2.3,1.2,3.5,3.7,3.5c0.9,0,1.7-0.1,2.6-0.4s1.5-0.6,1.9-0.9l0.6-0.4v-5.8
		l-4.5,0.6c-1.6,0.2-2.7,0.5-3.3,1.1C716.6,219.5,716.2,220.3,716.2,221.4z"/>
	<path id="m" class="st0" d="M684.9,227.2v-15.1c0-1.3-0.3-2.3-0.9-3c-0.6-0.6-1.6-0.9-2.9-0.9c-0.9,0-1.8,0.1-2.7,0.4
		c-0.9,0.3-1.5,0.6-1.9,0.9l-0.6,0.4v17.3h-4.7v-13.5c0-1.5-0.1-2.9-0.2-4.2c-0.2-1.2-0.3-2.1-0.5-2.6l-0.2-0.7l0.5-0.5
		c0.8,0,1.7,0,2.5-0.1c0.8-0.1,1.4-0.1,1.7-0.2l0.5-0.1l0.4,0.4l-0.2,2.2l0.2,0.2c0.2-0.2,0.5-0.5,0.9-0.8c0.4-0.3,1.3-0.7,2.6-1.2
		c1.3-0.5,2.7-0.8,4.1-0.8c2.7,0,4.5,0.9,5.4,2.8c2.5-1.9,5.3-2.8,8.3-2.8c4.1,0,6.1,2.1,6.1,6.2v15.5h-4.7v-15.1
		c0-1.4-0.3-2.4-0.9-3c-0.6-0.6-1.5-0.9-2.8-0.9c-1.9,0-3.7,0.5-5.4,1.6c0.1,0.5,0.2,1.1,0.2,1.9v15.5H684.9z"/>
	<path id="u_-_3" class="st0" d="M646.8,205.8v14.8c0,1.5,0.3,2.5,1,3.2c0.7,0.7,1.8,1,3.2,1c1,0,2-0.1,3-0.4c1-0.3,1.7-0.6,2.2-0.9
		l0.7-0.4v-9.4c0-1.5,0-2.9-0.1-4.2c-0.1-1.2-0.2-2.1-0.3-2.6l-0.1-0.7l0.4-0.5c0.8,0,1.6,0,2.4-0.1c0.7-0.1,1.3-0.1,1.6-0.2
		l0.5-0.1l0.4,0.4v12.4c0,1.5,0.1,3,0.2,4.4c0.2,1.4,0.3,2.5,0.5,3.1l0.2,1l-0.4,0.4c-0.8,0-1.7,0-2.5,0.1c-0.8,0.1-1.4,0.2-1.8,0.2
		l-0.5,0.1l-0.4-0.5l0.2-2.2l-0.2-0.2c-0.2,0.2-0.6,0.5-1.1,0.8c-0.5,0.3-1.4,0.7-2.9,1.2c-1.4,0.5-2.9,0.8-4.4,0.8
		c-4.4,0-6.6-2.2-6.6-6.5v-7.3c0-1.5-0.1-2.9-0.2-4.2c-0.2-1.2-0.3-2.1-0.5-2.6l-0.2-0.7l0.5-0.5c0.8,0,1.7,0,2.5-0.1
		c0.8-0.1,1.4-0.1,1.7-0.2l0.5-0.1L646.8,205.8z"/>
	<path id="h_-_1" class="st0" d="M613,227.2v-19.5c0-2.5-0.1-4.9-0.2-7.2s-0.3-4-0.4-5l-0.2-1.5l0.4-0.5c0.8,0,1.7,0,2.5-0.1
		c0.8-0.1,1.4-0.2,1.8-0.2l0.5-0.1l0.4,0.4v12.2l-0.2,2.3l0.2,0.2c0.3-0.2,0.6-0.5,1.1-0.8c0.5-0.3,1.5-0.7,3-1.2
		c1.5-0.5,3-0.8,4.6-0.8c4.3,0,6.4,2.1,6.4,6.2v15.5H628v-15.1c0-1.3-0.3-2.3-1-3c-0.7-0.6-1.7-0.9-3.2-0.9c-1.1,0-2.1,0.1-3.1,0.4
		c-1,0.3-1.8,0.6-2.3,0.9l-0.8,0.4v17.3H613z"/>
	<path id="l" class="st0" d="M586.7,227.2v-20.3c0-2.5-0.1-4.9-0.2-7s-0.3-3.7-0.4-4.7l-0.2-1.3l0.4-0.5c0.8,0,1.7,0,2.5-0.1
		c0.8-0.1,1.4-0.2,1.8-0.2l0.5-0.1l0.4,0.4v33.8H586.7z"/>
	<path id="u_-_2" class="st0" d="M562.4,205.8v14.8c0,1.5,0.3,2.5,1,3.2c0.7,0.7,1.8,1,3.2,1c1,0,2-0.1,3-0.4c1-0.3,1.7-0.6,2.2-0.9
		l0.7-0.4v-9.4c0-1.5,0-2.9-0.1-4.2c-0.1-1.2-0.2-2.1-0.3-2.6l-0.1-0.7l0.4-0.5c0.8,0,1.6,0,2.4-0.1c0.7-0.1,1.3-0.1,1.6-0.2
		l0.5-0.1l0.4,0.4v12.4c0,1.5,0.1,3,0.2,4.4c0.2,1.4,0.3,2.5,0.5,3.1l0.2,1l-0.4,0.4c-0.8,0-1.7,0-2.5,0.1c-0.8,0.1-1.4,0.2-1.8,0.2
		l-0.5,0.1l-0.4-0.5l0.2-2.2l-0.2-0.2c-0.2,0.2-0.6,0.5-1.1,0.8c-0.5,0.3-1.4,0.7-2.9,1.2c-1.4,0.5-2.9,0.8-4.4,0.8
		c-4.4,0-6.6-2.2-6.6-6.5v-7.3c0-1.5-0.1-2.9-0.2-4.2c-0.2-1.2-0.3-2.1-0.5-2.6l-0.2-0.7l0.5-0.5c0.8,0,1.7,0,2.5-0.1
		c0.8-0.1,1.4-0.1,1.7-0.2l0.5-0.1L562.4,205.8z"/>
	<path id="o_-_2" class="st0" d="M527.2,216.5c0-3.3,1-6,3.1-8c2.1-2,4.8-3.1,8.2-3.1c3.4,0,6.1,1,8.2,3.1c2.1,2,3.1,4.7,3.1,8
		c0,3.3-1,5.9-3.1,8c-2.1,2-4.8,3.1-8.2,3.1c-3.4,0-6.1-1-8.2-3.1S527.2,219.8,527.2,216.5z M534.1,209.7c-1.1,1.6-1.7,3.9-1.7,6.8
		s0.6,5.2,1.7,6.8c1.1,1.6,2.6,2.5,4.4,2.5c1.9,0,3.3-0.8,4.4-2.5c1.1-1.6,1.6-3.9,1.6-6.8c0-2.9-0.5-5.2-1.6-6.9
		c-1.1-1.6-2.6-2.5-4.4-2.5C536.7,207.2,535.2,208,534.1,209.7z"/>
	<path id="S_1_" class="st0" d="M508.2,197.2c-1.9,0-3.3,0.4-4.2,1.2c-0.9,0.8-1.4,1.9-1.4,3.3c0,1.3,0.5,2.4,1.5,3.3
		s3.3,2.4,6.8,4.5c1.3,0.8,2.2,1.4,2.7,1.7c0.5,0.3,1.2,0.8,2.1,1.4c0.9,0.6,1.5,1,1.8,1.3c0.3,0.3,0.7,0.7,1.2,1.2
		c0.5,0.5,0.8,0.9,1,1.3c0.1,0.4,0.3,0.9,0.4,1.4c0.1,0.5,0.2,1.1,0.2,1.7c0,2.6-0.9,4.6-2.8,6c-1.9,1.4-4.7,2.1-8.5,2.1
		c-1.5,0-3-0.1-4.3-0.4c-1.3-0.2-2.4-0.5-3.2-0.9c-0.8-0.3-1.5-0.7-2.1-1c-0.6-0.3-1-0.6-1.3-0.9l-0.4-0.4c0-0.9,0.2-1.8,0.6-2.6
		c0.4-0.8,0.8-1.4,1.2-1.8l0.6-0.5h0.6c0.1,0.2,0.2,0.4,0.4,0.7c0.2,0.3,0.5,0.8,1.1,1.6c0.6,0.8,1.2,1.4,1.8,2
		c0.6,0.6,1.5,1.1,2.5,1.6c1,0.5,2.1,0.7,3.2,0.7c1.9,0,3.4-0.4,4.6-1.3c1.2-0.9,1.8-2,1.8-3.5c0-1-0.4-1.9-1.1-2.8
		c-0.8-0.9-1.6-1.6-2.4-2.1c-0.8-0.5-2.2-1.3-4.2-2.4c-0.4-0.2-0.6-0.4-0.8-0.4c-2.3-1.2-4-2.2-5.2-3c-1.1-0.8-2.1-1.8-2.8-2.9
		c-0.7-1.1-1.1-2.5-1.1-4c0-2.6,0.9-4.5,2.7-5.9c1.8-1.4,4.5-2,8-2c2.1,0,3.9,0.2,5.6,0.7c1.6,0.5,2.8,0.9,3.4,1.4l0.9,0.7
		c0,0.9-0.2,1.8-0.6,2.6c-0.4,0.8-0.8,1.4-1.2,1.8l-0.6,0.6H516c-0.1-0.2-0.2-0.4-0.3-0.6c-0.1-0.3-0.4-0.7-0.9-1.4
		c-0.5-0.7-1-1.3-1.5-1.8c-0.5-0.5-1.3-1-2.2-1.4C510.2,197.4,509.3,197.2,508.2,197.2z"/>
	<path id="g" class="st0" d="M460.7,228.6l0.5,0.5c-0.5,0.9-0.8,1.9-0.8,3.1c0,3.1,2.3,4.7,7,4.7c2.4,0,4.4-0.5,5.8-1.4
		c1.5-0.9,2.2-2.1,2.2-3.6c0-0.5-0.1-1-0.3-1.4c-0.2-0.4-0.5-0.7-0.9-1c-0.4-0.3-0.8-0.5-1.2-0.6c-0.4-0.2-0.9-0.3-1.6-0.4
		c-0.6-0.1-1.2-0.2-1.7-0.2s-1.1-0.1-1.8-0.1c-1.3-0.1-2.3-0.1-2.8-0.2c-0.6,0-1.4-0.1-2.4-0.3c-1-0.1-1.7-0.3-2.2-0.5
		c-0.5-0.2-0.9-0.5-1.5-0.8c-0.5-0.3-0.9-0.8-1.1-1.3s-0.3-1.2-0.3-1.9c0-2.1,0.9-3.9,2.7-5.4c-1.7-1.3-2.5-3.1-2.5-5.2
		c0-2.2,0.9-3.9,2.6-5.2c1.7-1.3,4-2,6.9-2c2.1,0,4,0.4,5.6,1.2c2-2,4.2-3,6.5-3c0.3,0.9,0.4,2.2,0.4,3.8l-0.4,0.4
		c-0.5-0.3-1.1-0.4-2-0.4c-0.9,0-1.8,0.2-2.7,0.5c1.4,1.3,2,2.8,2,4.7c0,2.2-0.9,3.9-2.6,5.2s-4.1,2-6.9,2c-2,0-3.8-0.3-5.3-1
		c-0.7,0.7-1,1.5-1,2.5c0,0.5,0.1,0.9,0.4,1.3s0.5,0.6,0.9,0.8c0.3,0.2,0.8,0.3,1.5,0.5c0.7,0.1,1.3,0.2,1.9,0.2s1.4,0.1,2.5,0.1
		c1.5,0.1,2.7,0.1,3.6,0.2s1.9,0.2,2.9,0.5c1,0.2,1.8,0.5,2.3,0.9c0.5,0.4,1,0.9,1.4,1.6c0.4,0.7,0.5,1.5,0.5,2.4
		c0,2.7-1.2,4.8-3.6,6.5c-2.4,1.6-5.5,2.5-9.4,2.5c-3.1,0-5.5-0.6-7.2-1.7c-1.7-1.1-2.6-2.8-2.6-4.9c0-0.6,0.1-1.2,0.2-1.7
		c0.1-0.5,0.2-0.9,0.4-1.1l0.2-0.3C457.8,228.7,459.1,228.6,460.7,228.6z M463.8,208.7c-0.9,1-1.3,2.3-1.3,4c0,1.7,0.4,3.1,1.3,4
		c0.9,1,2,1.5,3.5,1.5c1.5,0,2.6-0.5,3.5-1.5c0.9-1,1.3-2.3,1.3-4c0-1.7-0.4-3.1-1.3-4c-0.9-1-2-1.5-3.5-1.5
		C465.9,207.2,464.7,207.7,463.8,208.7z"/>
	<path id="n_-_1" class="st0" d="M444.8,227.2v-15.1c0-1.3-0.3-2.3-1-3c-0.6-0.6-1.7-0.9-3.2-0.9c-1,0-2,0.1-3.1,0.4
		c-1,0.3-1.8,0.6-2.3,0.9l-0.8,0.4v17.3h-4.7v-13.5c0-1.5-0.1-2.9-0.2-4.2c-0.2-1.2-0.3-2.1-0.5-2.6l-0.2-0.7l0.5-0.5
		c0.8,0,1.7,0,2.5-0.1c0.8-0.1,1.4-0.1,1.7-0.2l0.5-0.1l0.4,0.4l-0.2,2.2l0.2,0.2c0.3-0.2,0.6-0.5,1.1-0.8c0.5-0.3,1.5-0.7,3-1.2
		c1.5-0.5,3-0.8,4.5-0.8c4.3,0,6.4,2.1,6.4,6.2v15.5H444.8z"/>
	<path id="u_-_1" class="st0" d="M405.3,205.8v14.8c0,1.5,0.3,2.5,1,3.2c0.7,0.7,1.8,1,3.2,1c1,0,2-0.1,3-0.4c1-0.3,1.7-0.6,2.2-0.9
		l0.7-0.4v-9.4c0-1.5,0-2.9-0.1-4.2c-0.1-1.2-0.2-2.1-0.3-2.6l-0.1-0.7l0.4-0.5c0.8,0,1.6,0,2.4-0.1c0.7-0.1,1.3-0.1,1.6-0.2
		l0.5-0.1l0.4,0.4v12.4c0,1.5,0.1,3,0.2,4.4c0.2,1.4,0.3,2.5,0.5,3.1l0.2,1l-0.4,0.4c-0.8,0-1.7,0-2.5,0.1c-0.8,0.1-1.4,0.2-1.8,0.2
		l-0.5,0.1l-0.4-0.5l0.2-2.2l-0.2-0.2c-0.2,0.2-0.6,0.5-1.1,0.8c-0.5,0.3-1.4,0.7-2.9,1.2c-1.4,0.5-2.9,0.8-4.4,0.8
		c-4.4,0-6.6-2.2-6.6-6.5v-7.3c0-1.5-0.1-2.9-0.2-4.2c-0.2-1.2-0.3-2.1-0.5-2.6l-0.2-0.7l0.5-0.5c0.8,0,1.7,0,2.5-0.1
		c0.8-0.1,1.4-0.1,1.7-0.2l0.5-0.1L405.3,205.8z"/>
	<path id="o_-_1" class="st0" d="M370.2,216.5c0-3.3,1-6,3.1-8c2.1-2,4.8-3.1,8.2-3.1c3.4,0,6.1,1,8.2,3.1c2.1,2,3.1,4.7,3.1,8
		c0,3.3-1,5.9-3.1,8c-2.1,2-4.8,3.1-8.2,3.1c-3.4,0-6.1-1-8.2-3.1S370.2,219.8,370.2,216.5z M377.1,209.7c-1.1,1.6-1.7,3.9-1.7,6.8
		s0.6,5.2,1.7,6.8c1.1,1.6,2.6,2.5,4.4,2.5c1.9,0,3.3-0.8,4.4-2.5c1.1-1.6,1.6-3.9,1.6-6.8c0-2.9-0.5-5.2-1.6-6.9
		c-1.1-1.6-2.6-2.5-4.4-2.5C379.7,207.2,378.2,208,377.1,209.7z"/>
	<path id="Y_1_" class="st0" d="M367.8,195.7l-11.3,17.2v14.3h-4.9v-14l-5.1-7.9c-1.1-1.7-2.2-3.3-3.3-4.8c-1.1-1.5-1.9-2.6-2.5-3.3
		l-0.8-1v-0.5h6l9.4,14.2l9.5-14.2H367.8z"/>
</g>
<g id="Contrails">
	<path id="Contrail_4_1_" class="st1" d="M583.6,171.7c13,4.1,27.7,8.2,43.9,11.6c16.9,3.6,32.6,5.9,46.7,7.5"/>
	<path id="Contrail_3_1_" class="st1" d="M564.9,132.7c15.2,10,34.2,20.8,57,30.7c29.4,12.8,56.5,20.3,78.5,24.9"/>
	<path id="Contrail_2_1_" class="st1" d="M601.3,126.8c12.8,9.6,28.6,20.1,47.7,29.9c28.9,14.9,56,23.7,77.6,29.1"/>
	<path id="Contrail_1_1_" class="st1" d="M550.8,52.9c18.3,18.7,41.4,39.4,70.1,59.8c46.6,33.1,92.2,54,128.1,67.3"/>
</g>
<g id="Birdie">
	<g id="Olivebranch">
		
			<ellipse id="Olive_3" transform="matrix(0.624 -0.7814 0.7814 0.624 32.7212 326.0013)" class="st2" cx="355.1" cy="129" rx="8.1" ry="4.5"/>
		
			<ellipse id="Olive_2" transform="matrix(0.3005 -0.9538 0.9538 0.3005 144.3784 430.9812)" class="st2" cx="366" cy="117.1" rx="4.6" ry="8.1"/>
		
			<ellipse id="Olive_1" transform="matrix(0.624 -0.7814 0.7814 0.624 43.3065 313.6865)" class="st2" cx="347.6" cy="111.8" rx="8.1" ry="4.5"/>
		<path id="Branch" class="st2" d="M325.4,69.4c17.5,10.2,24.3,21,27.2,29.4c2.5,7.4,3.3,16.8,10.9,27.6c3.3,4.7,6.7,8,9.1,10.1"/>
	</g>
	<path id="Winglet_2_" class="st3" d="M488.1,68.7c4.2-2.7,2.8-8.7,5.1-19.1c3.5-16.6,10.3-24.1,8.5-25.5
		c-2.6-1.9-14.4,13.4-35.4,29.7c-22.3,17.3-42.5,26.4-41.9,27.6c0.5,1,16.2-7.1,35.1-11c6-1.3,9.3-1.9,14.2-1.9
		C482.2,68.6,484.9,70.8,488.1,68.7z"/>
	<path id="Eye_2_" class="st0" d="M385.6,85.2c-0.3,1.2-2.4,1.7-4.5,1.1c-2.2-0.6-3.6-2.1-3.3-3.3c0.3-1.2,2.4-1.7,4.5-1.1
		C384.5,82.5,385.9,84,385.6,85.2z"/>
	<path id="Body_2_" class="st3" d="M359.8,92.7c4.4,1.7,5.1,2.7,16.9,9.8c9,5.4,9.3,5.2,11.6,6.7c10.6,7,14.2,16.6,18,23.4
		c9.3,16.7,28.6,32.9,48.6,37.3c15.4,3.4,16.6-3.4,37.7,0c21.9,3.5,36.1,13.3,39.1,9.7c1.8-2.2-2.1-7.6-3.9-10.1
		c-9.6-13.3-20-13-40-27.9c-4.4-3.3-8.8-8.7-17.5-19.6c-1.4-1.7-3.6-4.6-2.6-7.3c1-2.8,5-3.9,9.9-5.2c17.4-4.5,26.1-6.9,31.9-6.8
		c2.1,0,7.8,0.2,15,1.7c15.4,3.3,22.4,9.7,24.1,8c2.2-2.2-7.4-14-14.4-20.8c-2.2-2.2-4.2-4.2-7.5-6.6c-1.4-1-7.2-5.1-19.4-9.4
		c-6.4-2.3-11.3-3.9-17.9-5.1c-2.3-0.4-6.6-0.9-11.9-0.9c-4.9,0-9,0.6-17.1,1.7c-13.5,1.9-10.2,2.2-16.3,2.8c0,0-12.8,1.3-16.3,4.9
		c-0.3,0.3-1.2,1.4-2.8,2.5c-1.7,1.2-3.8,2.8-6.7,3c-2.8,0.2-4.8-0.9-5.9-1.4c-2.7-1.4-4.2-3.3-4.6-3.9c-4.3-5.3-13.7-7.3-15.8-7.7
		c-2.2-0.4-15.2-2.6-24.8,4.3c-4,2.9-3.5,4.5-8,7.2c-7.5,4.6-14.8,3.8-14.9,5.2C344.3,89.3,351.1,89.2,359.8,92.7z"/>
</g>
<g id="YSh">
	<path id="h" class="st0" d="M208.1,271.8v-48.6c0-6.3-0.2-12.3-0.6-18c-0.4-5.7-0.7-9.9-1.1-12.5l-0.6-3.8l1-1.1
		c2.1,0,4.1-0.1,6.1-0.3c2-0.2,3.5-0.4,4.4-0.6l1.3-0.2l1,1.1v30.5l-0.4,5.8l0.4,0.4c0.7-0.5,1.6-1.2,2.8-1.9c1.2-0.7,3.7-1.8,7.4-3
		c3.8-1.3,7.6-1.9,11.4-1.9c10.6,0,15.9,5.2,15.9,15.5v38.6h-11.8v-37.5c0-3.4-0.8-5.8-2.5-7.4c-1.6-1.6-4.3-2.4-7.8-2.4
		c-2.6,0-5.2,0.3-7.8,1c-2.6,0.7-4.5,1.4-5.8,2.1l-1.9,1v43.1H208.1z"/>
	<path id="S" class="st0" d="M153.4,197.1c-4.7,0-8.2,1-10.5,3c-2.3,2-3.5,4.7-3.5,8.2c0,3.3,1.2,6,3.7,8.2
		c2.5,2.2,8.1,5.9,16.9,11.1c3.3,2,5.6,3.4,6.8,4.3c1.3,0.8,3,2,5.3,3.5c2.2,1.5,3.8,2.6,4.5,3.3c0.8,0.7,1.8,1.7,3,2.9
		c1.2,1.2,2,2.4,2.4,3.4c0.4,1,0.7,2.1,1.1,3.4c0.3,1.3,0.5,2.7,0.5,4.1c0,6.4-2.4,11.4-7.1,15c-4.7,3.5-11.8,5.3-21.3,5.3
		c-3.8,0-7.4-0.3-10.7-0.9c-3.3-0.6-6-1.3-8.1-2.1c-2.1-0.8-3.8-1.6-5.3-2.5c-1.5-0.8-2.5-1.5-3.1-2.1l-1-0.9c0-2.3,0.5-4.5,1.5-6.5
		c1-2,2-3.5,3.1-4.4l1.5-1.3h1.5c0.2,0.4,0.5,1,1,1.7c0.4,0.7,1.3,2,2.7,3.9c1.4,1.9,2.9,3.5,4.5,4.9c1.6,1.4,3.7,2.7,6.2,3.9
		c2.5,1.2,5.2,1.7,7.8,1.7c4.6,0,8.4-1.1,11.4-3.3c2.9-2.2,4.4-5.1,4.4-8.7c0-2.5-1-4.8-2.9-7c-1.9-2.2-3.9-3.9-5.9-5.2
		c-2-1.3-5.5-3.2-10.5-5.9c-0.9-0.5-1.6-0.9-2-1.1c-5.8-3.1-10-5.6-12.9-7.6c-2.8-2-5.2-4.4-6.9-7.2c-1.8-2.8-2.7-6.1-2.7-9.9
		c0-6.4,2.3-11.3,6.8-14.7c4.5-3.4,11.2-5,20-5c5.2,0,9.8,0.6,13.9,1.7c4.1,1.2,6.9,2.3,8.4,3.4l2.4,1.8c0,2.3-0.5,4.5-1.5,6.6
		c-1,2.1-2,3.5-3,4.4l-1.5,1.5h-1.3c-0.2-0.4-0.4-0.9-0.7-1.6s-1-1.9-2.2-3.6c-1.2-1.7-2.4-3.2-3.8-4.5c-1.3-1.3-3.2-2.4-5.5-3.5
		C158.4,197.6,156,197.1,153.4,197.1z"/>
	<path id="Y" class="st0" d="M110.3,193.4l-28,42.8v35.6H70.1v-34.8l-12.8-19.7c-2.7-4.2-5.4-8.2-8.1-11.9c-2.7-3.8-4.8-6.5-6.2-8.2
		l-2-2.6v-1.1h15l23.5,35.4l23.5-35.4H110.3z"/>
</g>
<g id="Tag">
	<path id="Greate_than" class="st0" d="M276.1,151.2l-25.9,15.6l-2.9-4.4l22.9-12.4v-0.8l-22.9-12.4l2.9-4.3l25.9,15.6V151.2z"/>
	<path id="Slash" class="st0" d="M247.8,116.5c0,1.6-2.1,11.3-6.4,29.1s-6.4,28.7-6.4,32.6h-5.3c0-1.5,2.2-11.1,6.5-28.7
		c4.3-17.6,6.5-28.6,6.5-33.1H247.8z"/>
	<path id="Dot_3" class="st0" d="M210.1,161.5c0.7-0.7,1.6-1,2.7-1s1.9,0.3,2.3,0.9s0.7,1.4,0.7,2.4c0,1.1-0.3,2-1,2.7
		s-1.6,1.2-2.6,1.2c-1,0-1.8-0.3-2.2-1s-0.7-1.4-0.7-2.3C209.1,163.1,209.4,162.2,210.1,161.5z"/>
	<path id="Dot_2" class="st0" d="M195.1,161.5c0.7-0.7,1.6-1,2.7-1s1.9,0.3,2.3,0.9s0.7,1.4,0.7,2.4c0,1.1-0.3,2-1,2.7
		s-1.6,1.2-2.6,1.2c-1,0-1.8-0.3-2.2-1s-0.7-1.4-0.7-2.3C194.1,163.1,194.4,162.2,195.1,161.5z"/>
	<path id="Dot_1" class="st0" d="M180.1,161.5c0.7-0.7,1.6-1,2.7-1s1.9,0.3,2.3,0.9s0.7,1.4,0.7,2.4c0,1.1-0.3,2-1,2.7
		s-1.6,1.2-2.6,1.2c-1,0-1.8-0.3-2.2-1s-0.7-1.4-0.7-2.3C179.1,163.1,179.5,162.2,180.1,161.5z"/>
	<path id="Less_than" class="st0" d="M163.5,162.4l-2.9,4.4l-25.9-15.6v-3.1l25.9-15.6l2.9,4.3l-22.8,12.5v0.8L163.5,162.4z"/>
</g>
<g id="Human">
	<ellipse id="head" class="st4" cx="59.5" cy="56.5" rx="25" ry="25"/>
	<path id="body" class="st4" d="M123.5,134.5c-12.5-3.1-25-6.2-37.5-9.3c-0.6-1.7-1.6-4.2-3.2-7c-8.6-15.2-29.6-35-35.9-13.1
		c-3.2,11-12.7,51-13.4,50.9c0,0,0-0.4,0.3-2.8"/>
</g>
<g id="Sun">
	<g id="Rays">
		<line id="ray_7" class="st5" x1="279.7" y1="62.9" x2="279.7" y2="75.7"/>
		<line id="ray_6" class="st5" x1="268.6" y1="61.8" x2="263" y2="80"/>
		<line id="ray_5" class="st5" x1="257.4" y1="58.1" x2="246.4" y2="77.7"/>
		<line id="ray_4" class="st5" x1="247.6" y1="50.2" x2="230.9" y2="67.8"/>
		<line id="ray_3" class="st5" x1="239.9" y1="41.3" x2="221.4" y2="53.5"/>
		<line id="ray_2" class="st5" x1="236.5" y1="31.5" x2="218.5" y2="36.1"/>
		<line id="ray_1" class="st5" x1="235.3" y1="21" x2="222.9" y2="21"/>
	</g>
	<g id="Sphere_1_">
		<path id="outer-outline_1_" class="st5" d="M286,55.7c-1.7,0.1-22.8,1.5-35.4-15.6c-8.2-11.1-8.1-23.4-7.9-27.1"/>
	</g>
</g>
<g id="Border">
	<path class="st6" d="M5.5,254.5c0,22.6,18.4,41,41,41h207.9c22.6,0,41-18.4,41-41v-208c0-22.6-18.4-41-41-41H46.5
		c-22.6,0-41,18.4-41,41V254.5z"/>
</g>
</svg>
