<svg id="YSh-logo-Icon" xmlns="http://www.w3.org/2000/svg" viewBox="0 0 758.98 299"><defs><style>.cls-1{fill:#999;}.cls-1,.cls-2,.cls-3,.cls-4,.cls-5,.cls-6,.cls-7,.cls-8{stroke:#999;}.cls-1,.cls-2,.cls-3,.cls-4,.cls-5,.cls-6{stroke-miterlimit:10;}.cls-2,.cls-3,.cls-4,.cls-6,.cls-7,.cls-8{fill:none;}.cls-2{stroke-width:2px;}.cls-3{stroke-width:3px;}.cls-4,.cls-7{stroke-width:5px;}.cls-5{fill:#fff;}.cls-6,.cls-8{stroke-width:9px;}.cls-7,.cls-8{stroke-linejoin:round;}</style></defs><g id="Young_Soul_human_on_the_Web" data-name="Young Soul human on the Web"><path id="b" class="cls-1" d="M573.05,239.9l.4-.45c.84,0,1.66,0,2.46-.11a15.75,15.75,0,0,0,1.77-.25l.54-.09.41.45V251.6l-.18,2.34.18.18a7.8,7.8,0,0,1,.88-.74,11.39,11.39,0,0,1,2.4-1.17,10.09,10.09,0,0,1,3.83-.75,8.58,8.58,0,0,1,6.73,2.93q2.58,2.92,2.58,8c0,3.54-1,6.29-3,8.23s-5,2.93-9,2.93a19.92,19.92,0,0,1-5-.59,12.28,12.28,0,0,1-3.22-1.17l-.94-.58V253q0-3.78-.23-7c-.15-2.18-.3-3.73-.45-4.66Zm16.74,23q0-4.32-1.73-6.53a5.56,5.56,0,0,0-4.57-2.2,7.31,7.31,0,0,0-2.48.43,7.72,7.72,0,0,0-1.8.83l-.58.45v14.4a7,7,0,0,0,4.63,1.48,5.69,5.69,0,0,0,4.8-2.29A10.78,10.78,0,0,0,589.79,262.94Z" transform="translate(-1 -1)"/><path id="e_-_2" data-name="e - 2" class="cls-1" d="M565.08,268.7l.81.85a2.71,2.71,0,0,1-.29.45,7.14,7.14,0,0,1-1,.95,10.88,10.88,0,0,1-1.73,1.21,10.28,10.28,0,0,1-2.57,1,13.28,13.28,0,0,1-3.46.43,11.16,11.16,0,0,1-8.21-3,10.74,10.74,0,0,1-3.09-8,10.6,10.6,0,0,1,3.13-8q3.14-3,8.71-3,4.18,0,6.41,1.8a6.26,6.26,0,0,1,2.23,5.18,10.61,10.61,0,0,1-.14,1.69,9.13,9.13,0,0,1-.27,1.24l-.13.4-.45.4H550.77q0,4.36,2,6.6a7.13,7.13,0,0,0,5.62,2.22,10.93,10.93,0,0,0,3.56-.56,8.1,8.1,0,0,0,2.38-1.14Zm-7.83-15.48a5.67,5.67,0,0,0-4.47,1.91,9,9,0,0,0-2,5.42l10.71-.45a11.29,11.29,0,0,0,.22-2.25C561.75,254.77,560.25,253.22,557.25,253.22Z" transform="translate(-1 -1)"/><path id="W" class="cls-1" d="M527.91,272.43l-7.2-19.8-7.06,20.57h-3.56l-.76-.77-8.91-22.86c-.6-1.55-1.19-2.95-1.76-4.18s-1-2.07-1.26-2.52l-.4-.72v-.45h5.53l10.35,26.55L519.41,249c-.51-1.45-1-2.74-1.51-3.88s-.86-1.93-1.1-2.38l-.36-.63v-.45H522L531.51,268l9.14-26.28h2.61l-11.07,31.5h-3.51Z" transform="translate(-1 -1)"/><path id="e_-_1" data-name="e - 1" class="cls-1" d="M478.55,268.7l.81.85a3.58,3.58,0,0,1-.29.45,8.62,8.62,0,0,1-1,.95,11.45,11.45,0,0,1-1.74,1.21,10.19,10.19,0,0,1-2.56,1,13.36,13.36,0,0,1-3.47.43,11.17,11.17,0,0,1-8.21-3,10.78,10.78,0,0,1-3.08-8,10.57,10.57,0,0,1,3.13-8q3.12-3,8.7-3a10,10,0,0,1,6.42,1.8,6.29,6.29,0,0,1,2.22,5.18,10.6,10.6,0,0,1-.13,1.69,9.13,9.13,0,0,1-.27,1.24l-.14.4-.45.4H464.24q0,4.36,2,6.6a7.15,7.15,0,0,0,5.63,2.22,10.87,10.87,0,0,0,3.55-.56,8.18,8.18,0,0,0,2.39-1.14Zm-7.83-15.48a5.7,5.7,0,0,0-4.48,1.91,9.07,9.07,0,0,0-2,5.42L475,260.1a11.3,11.3,0,0,0,.23-2.25C475.22,254.77,473.72,253.22,470.72,253.22Z" transform="translate(-1 -1)"/><path id="h_-_2" data-name="h - 2" class="cls-1" d="M431.61,273.2V253.67q0-3.78-.22-7.22c-.15-2.3-.3-4-.45-5l-.23-1.53.41-.45c.84,0,1.66,0,2.45-.11a15.65,15.65,0,0,0,1.78-.25l.54-.09.4.45v12.24l-.18,2.34.18.18c.27-.21.65-.46,1.13-.76a16.11,16.11,0,0,1,3-1.22,14.28,14.28,0,0,1,4.57-.77c4.26,0,6.39,2.08,6.39,6.21V273.2h-4.73V258.12a4,4,0,0,0-1-3,4.49,4.49,0,0,0-3.15-.94,11.83,11.83,0,0,0-3.12.41,9.1,9.1,0,0,0-2.32.85l-.77.41V273.2Z" transform="translate(-1 -1)"/><path id="t" class="cls-1" d="M409.74,253.8v-1.3l4-1.35,1.17-5.22h3.2v5.89h6.25v2h-6.25v13.86q0,3.33,3.1,3.33a4.63,4.63,0,0,0,1.6-.27,4.68,4.68,0,0,0,1.06-.49l.27-.27.85.85a6,6,0,0,1-.65.77,7.62,7.62,0,0,1-2,1.21,7.92,7.92,0,0,1-3.45.77,5.58,5.58,0,0,1-4-1.35,5.2,5.2,0,0,1-1.42-4V253.8Z" transform="translate(-1 -1)"/><path id="n_-_3" data-name="n - 3" class="cls-1" d="M386.48,273.2V258.12a4,4,0,0,0-1-3,4.46,4.46,0,0,0-3.17-.94,11.7,11.7,0,0,0-3.08.41,9.1,9.1,0,0,0-2.32.85l-.77.41V273.2h-4.72V259.7a34.84,34.84,0,0,0-.23-4.16,16.68,16.68,0,0,0-.45-2.59l-.22-.67.45-.46a24.41,24.41,0,0,0,2.45-.11c.8-.07,1.37-.14,1.73-.2l.54-.09.45.4L376,254l.18.18c.27-.21.65-.46,1.13-.76a16,16,0,0,1,3-1.22,14,14,0,0,1,4.54-.77c4.26,0,6.39,2.08,6.39,6.21V273.2Z" transform="translate(-1 -1)"/><path id="o_-_3" data-name="o - 3" class="cls-1" d="M341,262.54a10.66,10.66,0,0,1,3.13-8,12.46,12.46,0,0,1,16.38,0,11.78,11.78,0,0,1,0,16,12.49,12.49,0,0,1-16.38,0A10.64,10.64,0,0,1,341,262.54Zm6.88-6.84a14.86,14.86,0,0,0,0,13.65,5.22,5.22,0,0,0,8.85,0,12.16,12.16,0,0,0,1.64-6.81,12.31,12.31,0,0,0-1.64-6.87,5.2,5.2,0,0,0-8.85,0Z" transform="translate(-1 -1)"/><path id="n_-_2" data-name="n - 2" class="cls-1" d="M754.75,227.2V212.12a4,4,0,0,0-1-3,4.51,4.51,0,0,0-3.18-.94,11.76,11.76,0,0,0-3.08.41,9.25,9.25,0,0,0-2.32.85l-.76.41V227.2h-4.73V213.7a35,35,0,0,0-.22-4.16,16.68,16.68,0,0,0-.45-2.59l-.23-.67.45-.46c.84,0,1.66,0,2.46-.11s1.37-.14,1.73-.2l.54-.09.45.4-.18,2.21.18.18c.27-.21.64-.46,1.12-.76a16,16,0,0,1,3-1.22,14.07,14.07,0,0,1,4.55-.77c4.26,0,6.39,2.08,6.39,6.21V227.2Z" transform="translate(-1 -1)"/><path id="a" class="cls-1" d="M721.27,205.46q8.46,0,8.46,6.3v11.48q0,2,1.62,2a2.48,2.48,0,0,0,.68-.09,1.71,1.71,0,0,0,.45-.18l.13-.09.81.85a3.77,3.77,0,0,1-.49.52,6.05,6.05,0,0,1-1.49.81,6.17,6.17,0,0,1-2.56.52q-3.28,0-3.78-2.7a11.8,11.8,0,0,1-7.65,2.7,6.36,6.36,0,0,1-4.52-1.46,5.38,5.38,0,0,1-1.56-4.12A4.64,4.64,0,0,1,713.2,218q1.81-1.36,6.77-2l5-.63v-4.5q0-3.69-3.87-3.69a4.83,4.83,0,0,0-3.33,1.08,3.77,3.77,0,0,0-1.22,3,5.72,5.72,0,0,0,.09,1,6,6,0,0,0,.18.77l0,.22-.41.45a16.09,16.09,0,0,1-2-.11c-.63-.07-1.08-.14-1.35-.2l-.41-.14a4.2,4.2,0,0,1-.4-2,4.9,4.9,0,0,1,2.32-4.27A11.72,11.72,0,0,1,721.27,205.46Zm-5,15.93c0,2.32,1.25,3.47,3.74,3.47a7.55,7.55,0,0,0,2.56-.45,8,8,0,0,0,1.89-.9l.59-.41v-5.85l-4.5.59a6.32,6.32,0,0,0-3.31,1.1A3.08,3.08,0,0,0,716.23,221.39Z" transform="translate(-1 -1)"/><path id="m" class="cls-1" d="M684.91,227.2V212.12a4.32,4.32,0,0,0-.87-3,3.88,3.88,0,0,0-2.91-.94,8.57,8.57,0,0,0-2.65.41,6.79,6.79,0,0,0-1.94.85l-.63.41V227.2h-4.72V213.7a34.84,34.84,0,0,0-.23-4.16,16.68,16.68,0,0,0-.45-2.59l-.22-.67.45-.46a24.41,24.41,0,0,0,2.45-.11c.8-.07,1.37-.14,1.73-.2l.54-.09.45.4-.18,2.21.18.18a8,8,0,0,1,1-.76,13.18,13.18,0,0,1,2.63-1.22,11.48,11.48,0,0,1,4.12-.77q4,0,5.35,2.79a13.59,13.59,0,0,1,8.33-2.79c4.05,0,6.07,2.08,6.07,6.21V227.2h-4.72V212.12a4.19,4.19,0,0,0-.9-3,3.85,3.85,0,0,0-2.84-.92,10.44,10.44,0,0,0-5.44,1.58,8.31,8.31,0,0,1,.18,1.88V227.2Z" transform="translate(-1 -1)"/><path id="u_-_3" data-name="u - 3" class="cls-1" d="M646.8,205.82v14.76a4.34,4.34,0,0,0,1,3.22,4.46,4.46,0,0,0,3.24,1,11,11,0,0,0,3-.42,9.36,9.36,0,0,0,2.21-.88l.72-.41v-9.4c0-1.53,0-2.92-.14-4.16s-.18-2.11-.27-2.59l-.13-.67.4-.46a21.87,21.87,0,0,0,2.36-.11c.74-.07,1.27-.14,1.6-.2l.45-.09.41.4V218.2a42.25,42.25,0,0,0,.22,4.43,29.45,29.45,0,0,0,.45,3.13l.23,1-.41.45c-.84,0-1.66,0-2.45.11a15.65,15.65,0,0,0-1.78.25l-.54.09-.4-.45.18-2.21-.18-.18a8.73,8.73,0,0,1-1.06.77,15.72,15.72,0,0,1-2.86,1.21,13.13,13.13,0,0,1-4.41.77q-6.62,0-6.61-6.52V213.7a34.84,34.84,0,0,0-.23-4.16,16.68,16.68,0,0,0-.45-2.59l-.22-.67.45-.46c.84,0,1.65,0,2.45-.11s1.37-.14,1.73-.2l.54-.09Z" transform="translate(-1 -1)"/><path id="h_-_1" data-name="h - 1" class="cls-1" d="M613,227.2V207.67q0-3.78-.22-7.22c-.15-2.3-.3-4-.45-5l-.23-1.53.41-.45c.84,0,1.65,0,2.45-.11a16,16,0,0,0,1.78-.25l.54-.09.4.45v12.24l-.18,2.34.18.18c.27-.21.65-.46,1.13-.76a15.81,15.81,0,0,1,3-1.22,14.24,14.24,0,0,1,4.57-.77c4.26,0,6.39,2.08,6.39,6.21V227.2H628V212.12a4,4,0,0,0-1-3,4.49,4.49,0,0,0-3.15-.94,12,12,0,0,0-3.13.41,9.15,9.15,0,0,0-2.31.85l-.77.41V227.2Z" transform="translate(-1 -1)"/><path id="l" class="cls-1" d="M586.68,227.2V207q0-3.78-.22-7c-.15-2.18-.3-3.73-.45-4.66l-.23-1.35.41-.45c.84,0,1.65,0,2.45-.11a16,16,0,0,0,1.78-.25L591,193l.4.45V227.2Z" transform="translate(-1 -1)"/><path id="u_-_2" data-name="u - 2" class="cls-1" d="M562.38,205.82v14.76a4.34,4.34,0,0,0,1,3.22,4.46,4.46,0,0,0,3.24,1,11,11,0,0,0,3-.42,9.36,9.36,0,0,0,2.21-.88l.72-.41v-9.4c0-1.53-.05-2.92-.14-4.16s-.18-2.11-.27-2.59l-.13-.67.4-.46a22.19,22.19,0,0,0,2.37-.11c.73-.07,1.26-.14,1.59-.2l.45-.09.41.4V218.2a42.25,42.25,0,0,0,.22,4.43,29.45,29.45,0,0,0,.45,3.13l.23,1-.41.45c-.84,0-1.65,0-2.45.11a16,16,0,0,0-1.78.25l-.54.09-.4-.45.18-2.21-.18-.18a8,8,0,0,1-1.06.77,15.39,15.39,0,0,1-2.86,1.21,13.13,13.13,0,0,1-4.41.77q-6.62,0-6.61-6.52V213.7a34.84,34.84,0,0,0-.23-4.16A16.68,16.68,0,0,0,557,207l-.22-.67.45-.46a24.41,24.41,0,0,0,2.45-.11c.8-.07,1.37-.14,1.73-.2l.54-.09Z" transform="translate(-1 -1)"/><path id="o_-_2" data-name="o - 2" class="cls-1" d="M527.24,216.54a10.66,10.66,0,0,1,3.13-8,12.46,12.46,0,0,1,16.38,0,11.78,11.78,0,0,1,0,16,12.49,12.49,0,0,1-16.38,0A10.64,10.64,0,0,1,527.24,216.54Zm6.88-6.84a14.86,14.86,0,0,0,0,13.65,5.22,5.22,0,0,0,8.85,0,12.16,12.16,0,0,0,1.64-6.81,12.31,12.31,0,0,0-1.64-6.87,5.2,5.2,0,0,0-8.85,0Z" transform="translate(-1 -1)"/><path id="S" class="cls-1" d="M508.2,197.18a6.36,6.36,0,0,0-4.23,1.2,4.11,4.11,0,0,0-1.39,3.3,4.18,4.18,0,0,0,1.48,3.29,54.79,54.79,0,0,0,6.8,4.45c1.32.81,2.23,1.38,2.74,1.71l2.12,1.4a16.5,16.5,0,0,1,1.82,1.33c.32.28.72.67,1.22,1.17a4,4,0,0,1,1,1.35,13.19,13.19,0,0,1,.43,1.37,6.24,6.24,0,0,1,.2,1.66,7.07,7.07,0,0,1-2.83,6q-2.84,2.15-8.55,2.14a24.28,24.28,0,0,1-4.3-.36,16.52,16.52,0,0,1-3.24-.86,16.73,16.73,0,0,1-2.14-1,5.57,5.57,0,0,1-1.26-.85l-.4-.36a5.69,5.69,0,0,1,.61-2.61,5.4,5.4,0,0,1,1.23-1.75l.59-.55h.58c.09.18.22.42.39.7a15.84,15.84,0,0,0,1.08,1.55,12.27,12.27,0,0,0,1.8,2A9.77,9.77,0,0,0,506.4,225a7.59,7.59,0,0,0,3.15.69,7.46,7.46,0,0,0,4.57-1.32,4.15,4.15,0,0,0,1.78-3.49,4.21,4.21,0,0,0-1.15-2.81,10.77,10.77,0,0,0-2.36-2.1q-1.22-.77-4.23-2.38l-.81-.45a53.1,53.1,0,0,1-5.18-3,10,10,0,0,1-2.79-2.9,7.26,7.26,0,0,1-1.08-4,6.86,6.86,0,0,1,2.73-5.89c1.81-1.36,4.49-2,8-2a20.38,20.38,0,0,1,5.58.7,11,11,0,0,1,3.37,1.37l1,.72a5.81,5.81,0,0,1-.61,2.63,6,6,0,0,1-1.19,1.78l-.59.58H516q-.09-.23-.27-.63a13,13,0,0,0-.87-1.44,11.78,11.78,0,0,0-1.51-1.8,8.51,8.51,0,0,0-2.21-1.41A6.86,6.86,0,0,0,508.2,197.18Z" transform="translate(-1 -1)"/><path id="g" class="cls-1" d="M460.68,228.59l.45.45a5.79,5.79,0,0,0-.81,3.11q0,4.68,7,4.68a11,11,0,0,0,5.82-1.35,4.06,4.06,0,0,0,2.19-3.56,3.41,3.41,0,0,0-.27-1.41,2.22,2.22,0,0,0-.86-1,6.7,6.7,0,0,0-1.17-.63,6,6,0,0,0-1.55-.39c-.65-.09-1.2-.15-1.67-.2s-1.07-.08-1.82-.11c-1.32-.06-2.26-.11-2.83-.16s-1.36-.13-2.36-.27a9,9,0,0,1-2.19-.49,11.88,11.88,0,0,1-1.48-.81,2.78,2.78,0,0,1-1.13-1.33,5.2,5.2,0,0,1-.31-1.89,6.65,6.65,0,0,1,2.65-5.36,6.56,6.56,0,0,1,.09-10.41,11,11,0,0,1,6.89-2,12.4,12.4,0,0,1,5.62,1.22,9.08,9.08,0,0,1,6.53-3,12.65,12.65,0,0,1,.45,3.83l-.45.4a3.58,3.58,0,0,0-2-.45,6.91,6.91,0,0,0-2.66.54,6.15,6.15,0,0,1,2,4.68,6.28,6.28,0,0,1-2.63,5.24,11.1,11.1,0,0,1-6.91,2,13,13,0,0,1-5.27-1,3.41,3.41,0,0,0-1,2.52,2.21,2.21,0,0,0,.36,1.29,2.87,2.87,0,0,0,.86.81,4.68,4.68,0,0,0,1.53.45c.69.1,1.33.18,1.91.22s1.42.08,2.5.12c1.5.06,2.71.12,3.62.2a20.11,20.11,0,0,1,2.9.45,6.49,6.49,0,0,1,2.34.9,4.37,4.37,0,0,1,1.35,1.55,5,5,0,0,1,.54,2.43,7.52,7.52,0,0,1-3.55,6.46q-3.56,2.44-9.45,2.45a13.32,13.32,0,0,1-7.2-1.67,5.47,5.47,0,0,1-2.61-4.94,7.49,7.49,0,0,1,.18-1.69,5.44,5.44,0,0,1,.36-1.15l.22-.32A12.73,12.73,0,0,1,460.68,228.59Zm3.13-19.91a6.77,6.77,0,0,0,0,8.06,4.93,4.93,0,0,0,7,0,6.9,6.9,0,0,0,0-8.06,4.93,4.93,0,0,0-7,0Z" transform="translate(-1 -1)"/><path id="n_-_1" data-name="n - 1" class="cls-1" d="M444.75,227.2V212.12a4,4,0,0,0-1-3,4.51,4.51,0,0,0-3.18-.94,11.76,11.76,0,0,0-3.08.41,9.25,9.25,0,0,0-2.32.85l-.76.41V227.2h-4.73V213.7a35,35,0,0,0-.22-4.16,16.68,16.68,0,0,0-.45-2.59l-.23-.67.45-.46c.84,0,1.66,0,2.46-.11s1.37-.14,1.73-.2l.54-.09.45.4-.18,2.21.18.18c.27-.21.64-.46,1.12-.76a16,16,0,0,1,3-1.22,14.07,14.07,0,0,1,4.55-.77c4.26,0,6.39,2.08,6.39,6.21V227.2Z" transform="translate(-1 -1)"/><path id="u_-_1" data-name="u - 1" class="cls-1" d="M405.33,205.82v14.76a4.34,4.34,0,0,0,1,3.22,4.46,4.46,0,0,0,3.24,1,11,11,0,0,0,3-.42,9.36,9.36,0,0,0,2.21-.88l.72-.41v-9.4c0-1.53-.05-2.92-.14-4.16s-.18-2.11-.27-2.59l-.13-.67.4-.46a22.19,22.19,0,0,0,2.37-.11c.73-.07,1.26-.14,1.59-.2l.45-.09.41.4V218.2a42.25,42.25,0,0,0,.22,4.43,29.45,29.45,0,0,0,.45,3.13l.23,1-.41.45c-.84,0-1.65,0-2.45.11a16,16,0,0,0-1.78.25l-.54.09-.4-.45.18-2.21-.18-.18a8,8,0,0,1-1.06.77,15.39,15.39,0,0,1-2.86,1.21,13.13,13.13,0,0,1-4.41.77q-6.62,0-6.61-6.52V213.7a34.84,34.84,0,0,0-.23-4.16,16.68,16.68,0,0,0-.45-2.59l-.22-.67.45-.46a24.41,24.41,0,0,0,2.45-.11c.8-.07,1.37-.14,1.73-.2l.54-.09Z" transform="translate(-1 -1)"/><path id="o_-_1" data-name="o - 1" class="cls-1" d="M370.19,216.54a10.66,10.66,0,0,1,3.13-8,12.46,12.46,0,0,1,16.38,0,11.78,11.78,0,0,1,0,16,12.49,12.49,0,0,1-16.38,0A10.64,10.64,0,0,1,370.19,216.54Zm6.88-6.84a14.86,14.86,0,0,0,0,13.65,5.22,5.22,0,0,0,8.85,0,12.16,12.16,0,0,0,1.64-6.81,12.31,12.31,0,0,0-1.64-6.87,5.2,5.2,0,0,0-8.85,0Z" transform="translate(-1 -1)"/><path id="Y" class="cls-1" d="M367.76,195.7l-11.25,17.19V227.2H351.6v-14l-5.13-7.92c-1.08-1.68-2.16-3.28-3.26-4.8s-1.93-2.61-2.5-3.31l-.81-1v-.45h6l9.45,14.22,9.45-14.22Z" transform="translate(-1 -1)"/></g><g id="Contrails"><path id="Contrail_4" data-name="Contrail 4" class="cls-2" d="M583.56,171.71c13,4.15,27.7,8.18,43.93,11.64a467,467,0,0,0,46.74,7.47" transform="translate(-1 -1)"/><path id="Contrail_3" data-name="Contrail 3" class="cls-2" d="M564.87,132.66a383,383,0,0,0,57,30.74,404,404,0,0,0,78.52,24.93" transform="translate(-1 -1)"/><path id="Contrail_2" data-name="Contrail 2" class="cls-2" d="M601.32,126.84A334.37,334.37,0,0,0,649,156.76a356.41,356.41,0,0,0,77.58,29.08" transform="translate(-1 -1)"/><path id="Contrail_1" data-name="Contrail 1" class="cls-2" d="M550.85,52.89A511.24,511.24,0,0,0,621,112.71,554.73,554.73,0,0,0,749,180" transform="translate(-1 -1)"/></g><g id="Birdie"><g id="Olivebranch"><ellipse id="Olive_3" data-name="Olive 3" class="cls-3" cx="355.14" cy="129" rx="8.13" ry="4.52" transform="translate(31.72 325) rotate(-51.39)"/><ellipse id="Olive_2" data-name="Olive 2" class="cls-3" cx="366.02" cy="117.06" rx="4.55" ry="8.07" transform="translate(143.38 429.98) rotate(-72.51)"/><ellipse id="Olive_1" data-name="Olive 1" class="cls-3" cx="347.64" cy="111.84" rx="8.13" ry="4.52" transform="translate(42.31 312.69) rotate(-51.39)"/><path id="Branch" class="cls-3" d="M325.45,69.35c17.54,10.18,24.34,21,27.2,29.39,2.53,7.4,3.33,16.75,10.88,27.56a56.48,56.48,0,0,0,9.07,10.1" transform="translate(-1 -1)"/></g><path id="Winglet" class="cls-4" d="M488.09,68.74c4.15-2.67,2.84-8.68,5.06-19.12,3.54-16.6,10.33-24.11,8.47-25.46-2.56-1.87-14.42,13.38-35.42,29.73-22.28,17.35-42.49,26.4-41.94,27.55s16.17-7.08,35.06-11c6.05-1.25,9.35-1.94,14.22-1.91C482.22,68.56,484.89,70.8,488.09,68.74Z" transform="translate(-1 -1)"/><path id="Eye" class="cls-5" d="M385.59,85.19c-.35,1.21-2.38,1.69-4.55,1.06s-3.64-2.12-3.3-3.34,2.39-1.7,4.55-1.07S385.93,84,385.59,85.19Z" transform="translate(-1 -1)"/><path id="Body" class="cls-4" d="M359.79,92.68c4.38,1.74,5.09,2.72,16.94,9.79,9,5.35,9.27,5.2,11.6,6.74,10.6,7,14.22,16.59,18,23.37,9.3,16.7,28.62,32.89,48.65,37.32,15.43,3.42,16.63-3.4,37.72,0,21.86,3.49,36.09,13.28,39.08,9.7,1.83-2.2-2.06-7.62-3.87-10.13-9.57-13.32-20-13.05-39.95-27.88-4.45-3.3-8.8-8.74-17.49-19.63-1.38-1.73-3.59-4.58-2.65-7.25,1-2.83,5-3.94,9.94-5.23,17.36-4.5,26.12-6.87,31.86-6.83a76.62,76.62,0,0,1,15,1.68c15.44,3.28,22.37,9.75,24.07,8,2.15-2.19-7.44-14-14.37-20.84a56.73,56.73,0,0,0-7.47-6.57c-1.38-1-7.21-5.08-19.36-9.44a99.93,99.93,0,0,0-17.93-5.08,72.74,72.74,0,0,0-11.93-.93c-4.89,0-9,.57-17.07,1.73-13.52,1.94-10.17,2.18-16.33,2.75,0,0-12.8,1.26-16.25,4.9a18.87,18.87,0,0,1-2.78,2.5,12.73,12.73,0,0,1-6.7,3,10.93,10.93,0,0,1-5.94-1.44A14.15,14.15,0,0,1,407.92,79c-4.31-5.31-13.75-7.28-15.83-7.66s-15.18-2.61-24.83,4.29c-4,2.87-3.45,4.46-8,7.25-7.5,4.59-14.79,3.83-14.86,5.17S351.12,89.24,359.79,92.68Z" transform="translate(-1 -1)"/></g><g id="YSh"><path id="h" class="cls-1" d="M208.13,271.76V223.15q0-9.41-.56-18t-1.12-12.48l-.56-3.81,1-1.12q3.14,0,6.1-.28a35.91,35.91,0,0,0,4.42-.62l1.35-.22,1,1.12v30.46l-.45,5.83.45.45a32.27,32.27,0,0,1,2.8-1.91,42.32,42.32,0,0,1,7.44-3,35.42,35.42,0,0,1,11.37-1.91q15.9,0,15.9,15.46v38.64H245.53V234.24q0-5-2.46-7.39t-7.84-2.35a30.75,30.75,0,0,0-7.78,1,23.86,23.86,0,0,0-5.77,2.13l-1.9,1v43.12Z" transform="translate(-1 -1)"/><path id="S-2" data-name="S" class="cls-1" d="M153.37,197.05q-7.05,0-10.52,3a10.25,10.25,0,0,0-3.48,8.23,10.43,10.43,0,0,0,3.7,8.18q3.69,3.25,16.91,11.09c3.28,2,5.56,3.43,6.83,4.25s3,2,5.26,3.48a45.18,45.18,0,0,1,4.54,3.3c.78.71,1.79,1.68,3,2.91a10.09,10.09,0,0,1,2.41,3.36c.37,1,.73,2.15,1.06,3.42a16,16,0,0,1,.51,4.14q0,9.64-7.06,14.95t-21.27,5.33a60.21,60.21,0,0,1-10.7-.9,42.75,42.75,0,0,1-8.06-2.13,47.7,47.7,0,0,1-5.32-2.46,14.74,14.74,0,0,1-3.14-2.13l-1-.9a14.27,14.27,0,0,1,1.51-6.49,13.85,13.85,0,0,1,3.08-4.37l1.45-1.35h1.46c.22.45.54,1,.95,1.74s1.31,2,2.69,3.87a31.73,31.73,0,0,0,4.48,4.92,24.88,24.88,0,0,0,6.21,3.87,18.66,18.66,0,0,0,7.84,1.73q6.95,0,11.37-3.3a10.35,10.35,0,0,0,4.42-8.68,10.54,10.54,0,0,0-2.86-7,26.79,26.79,0,0,0-5.87-5.21q-3-1.91-10.53-5.94c-.9-.52-1.57-.89-2-1.12a132.48,132.48,0,0,1-12.87-7.56,24.87,24.87,0,0,1-7-7.22,18.08,18.08,0,0,1-2.68-9.86q0-9.63,6.77-14.67t20-5a51,51,0,0,1,13.88,1.74q6.17,1.74,8.4,3.42l2.35,1.79a14.64,14.64,0,0,1-1.51,6.55,15.23,15.23,0,0,1-3,4.42l-1.46,1.46h-1.34c-.15-.37-.38-.9-.68-1.57a29.32,29.32,0,0,0-2.18-3.58,26.71,26.71,0,0,0-3.75-4.48,20.57,20.57,0,0,0-5.49-3.53A17.26,17.26,0,0,0,153.37,197.05Z" transform="translate(-1 -1)"/><path id="Y-2" data-name="Y" class="cls-1" d="M110.26,193.36l-28,42.78v35.62H70.06V236.93L57.29,217.21q-4-6.27-8.12-11.92T43,197.05l-2-2.57v-1.12H56l23.51,35.39L103,193.36Z" transform="translate(-1 -1)"/></g><g id="Tag"><path id="Greate_than" data-name="Greate than" class="cls-1" d="M276.14,151.19,250.27,166.8l-2.91-4.36L270.24,150v-.81l-22.88-12.41,2.91-4.29,25.87,15.61Z" transform="translate(-1 -1)"/><path id="Slash" class="cls-1" d="M247.82,116.53q0,2.41-6.43,29.12T235,178.3h-5.3q0-2.3,6.46-28.71t6.47-33.06Z" transform="translate(-1 -1)"/><path id="Dot_3" data-name="Dot 3" class="cls-1" d="M210.06,161.51a3.52,3.52,0,0,1,2.65-1,2.67,2.67,0,0,1,2.3.88,3.84,3.84,0,0,1,.66,2.36,4,4,0,0,1-1,2.74,3.38,3.38,0,0,1-2.62,1.16,2.58,2.58,0,0,1-2.25-1,4.33,4.33,0,0,1,.3-5.13Z" transform="translate(-1 -1)"/><path id="Dot_2" data-name="Dot 2" class="cls-1" d="M195.09,161.51a3.52,3.52,0,0,1,2.65-1,2.67,2.67,0,0,1,2.3.88,3.84,3.84,0,0,1,.66,2.36,4,4,0,0,1-1,2.74,3.38,3.38,0,0,1-2.62,1.16,2.58,2.58,0,0,1-2.25-1,4.33,4.33,0,0,1,.3-5.13Z" transform="translate(-1 -1)"/><path id="Dot_1" data-name="Dot 1" class="cls-1" d="M180.12,161.51a3.52,3.52,0,0,1,2.65-1,2.67,2.67,0,0,1,2.3.88,3.84,3.84,0,0,1,.65,2.36,4,4,0,0,1-1,2.74,3.38,3.38,0,0,1-2.62,1.16,2.58,2.58,0,0,1-2.25-1,4.33,4.33,0,0,1,.3-5.13Z" transform="translate(-1 -1)"/><path id="Less_than" data-name="Less than" class="cls-1" d="M163.49,162.44l-2.92,4.36L134.7,151.19v-3.06l25.87-15.61,2.92,4.29-22.82,12.48v.81Z" transform="translate(-1 -1)"/></g><g id="Human"><ellipse id="head" class="cls-6" cx="58.49" cy="55.5" rx="25" ry="25"/><path id="body-2" data-name="body" class="cls-6" d="M123.48,134.5,86,125.21a46,46,0,0,0-3.15-7C74.23,103,53.27,83.19,47,105.11c-3.17,11-12.74,51-13.41,50.89,0,0,0-.35.32-2.83" transform="translate(-1 -1)"/></g><g id="Sun"><g id="Rays"><line id="ray_7" data-name="ray 7" class="cls-7" x1="278.71" y1="61.91" x2="278.71" y2="74.73"/><line id="ray_6" data-name="ray 6" class="cls-7" x1="267.59" y1="60.75" x2="261.98" y2="79"/><line id="ray_5" data-name="ray 5" class="cls-7" x1="256.35" y1="57.06" x2="245.37" y2="76.65"/><line id="ray_4" data-name="ray 4" class="cls-7" x1="246.64" y1="49.22" x2="229.92" y2="66.81"/><line id="ray_3" data-name="ray 3" class="cls-7" x1="238.9" y1="40.28" x2="220.39" y2="52.47"/><line id="ray_2" data-name="ray 2" class="cls-7" x1="235.5" y1="30.46" x2="217.46" y2="35.12"/><line id="ray_1" data-name="ray 1" class="cls-7" x1="234.32" y1="20.03" x2="221.86" y2="20.03"/></g><g id="Sphere"><path id="outer-outline" class="cls-7" d="M286,55.73c-1.7.14-22.75,1.53-35.43-15.61C242.33,29,242.47,16.73,242.65,13" transform="translate(-1 -1)"/></g></g><g id="Border"><rect class="cls-8" x="4.5" y="4.5" width="289.95" height="290" rx="41"/></g></svg>